<svg width="74" height="75" viewBox="0 0 74 75" fill="none" xmlns="http://www.w3.org/2000/svg">
<g clip-path="url(#clip0_120_213)">
<path d="M36.9999 74.8572C41.2935 74.8572 44.7742 71.41 44.7742 67.1576C44.7742 62.9052 41.2935 59.458 36.9999 59.458C32.7063 59.458 29.2256 62.9052 29.2256 67.1576C29.2256 71.41 32.7063 74.8572 36.9999 74.8572Z" stroke="white"/>
<path fill-rule="evenodd" clip-rule="evenodd" d="M47.3861 41.346C46.1998 41.8969 44.8756 42.2049 43.4785 42.2049C38.3898 42.2049 34.2645 38.1193 34.2645 33.0794C34.2645 30.5052 35.3408 28.1798 37.0722 26.5207C37.048 26.5206 37.0241 26.5205 36.9999 26.5205C30.8775 26.5205 25.9143 31.436 25.9143 37.4996C25.9143 43.5632 30.8775 48.4787 36.9999 48.4787C41.7558 48.4787 45.8122 45.5123 47.3861 41.346Z" fill="white"/>
<path d="M36.9999 0.000160217C32.6268 0.000160217 29.0816 3.51124 29.0816 7.84237C29.0816 12.1735 32.6268 15.6846 36.9999 15.6846C41.3731 15.6846 44.9182 12.1735 44.9182 7.84237C44.9182 3.51124 41.3731 0.000160217 36.9999 0.000160217Z" fill="white"/>
<path fill-rule="evenodd" clip-rule="evenodd" d="M73.7632 31.2646C70.9248 31.9464 68.817 34.4796 68.817 37.5004C68.817 40.5212 70.9248 43.0544 73.7632 43.7362C72.4312 44.744 70.7667 45.3426 68.961 45.3426C64.5878 45.3426 61.0427 41.8316 61.0427 37.5004C61.0427 33.1692 64.5878 29.6582 68.961 29.6582C70.7667 29.6582 72.4312 30.2568 73.7632 31.2646Z" fill="white"/>
<path fill-rule="evenodd" clip-rule="evenodd" d="M66.5405 17.8316C66.1135 17.9193 65.6712 17.9654 65.218 17.9654C61.6401 17.9654 58.7394 15.0927 58.7394 11.549C58.7394 10.2521 59.1278 9.04513 59.7959 8.03588C59.4964 8.00186 59.192 7.98438 58.8834 7.98438C54.5102 7.98438 50.9651 11.4955 50.9651 15.8266C50.9651 20.1577 54.5102 23.6688 58.8834 23.6688C62.5569 23.6688 65.6459 21.1914 66.5405 17.8316Z" fill="white"/>
<path fill-rule="evenodd" clip-rule="evenodd" d="M8.49413 17.9654C12.0722 17.9654 14.9727 15.0927 14.9727 11.549C14.9727 10.2669 14.5931 9.07267 13.939 8.07052C14.3233 8.01378 14.7165 7.98438 15.1167 7.98438C19.4899 7.98438 23.035 11.4955 23.035 15.8266C23.035 20.1577 19.4899 23.6688 15.1167 23.6688C11.4633 23.6688 8.3877 21.2183 7.47437 17.8863C7.80656 17.9384 8.14716 17.9654 8.49413 17.9654Z" fill="white"/>
<path fill-rule="evenodd" clip-rule="evenodd" d="M15.1167 67.0155C19.4898 67.0155 23.035 63.5044 23.035 59.1733C23.035 54.8421 19.4898 51.3311 15.1167 51.3311C11.9805 51.3311 9.27012 53.1368 7.98779 55.7558C9.12532 54.7759 10.6114 54.1828 12.2373 54.1828C15.8154 54.1828 18.7159 57.0556 18.7159 60.5991C18.7159 63.6784 16.5256 66.2512 13.6038 66.8726C14.0935 66.9664 14.5993 67.0155 15.1167 67.0155Z" fill="white"/>
<path fill-rule="evenodd" clip-rule="evenodd" d="M65.8123 55.3745C64.7518 54.6242 63.4532 54.1828 62.0507 54.1828C58.4728 54.1828 55.5721 57.0556 55.5721 60.5991C55.5721 63.6305 57.6945 66.1708 60.5477 66.8418C60.0112 66.9556 59.4544 67.0155 58.8834 67.0155C54.5102 67.0155 50.9651 63.5044 50.9651 59.1733C50.9651 54.8421 54.5102 51.3311 58.8834 51.3311C61.865 51.3311 64.4616 52.9631 65.8123 55.3745Z" fill="white"/>
<path fill-rule="evenodd" clip-rule="evenodd" d="M4.75092 45.3426C9.12407 45.3426 12.6692 41.8316 12.6692 37.5004C12.6692 33.1692 9.12407 29.6582 4.75092 29.6582C2.97484 29.6582 1.33532 30.2374 0.0144044 31.2152C2.96433 31.8152 5.18283 34.4012 5.18283 37.5004C5.18283 40.5996 2.96433 43.1856 0.0144043 43.7856C1.33532 44.7634 2.97484 45.3426 4.75092 45.3426Z" fill="white"/>
<path d="M24.4539 10.9604L24.8956 7.69922L27.521 9.71561L27.0792 12.9767L24.4539 10.9604Z" fill="white"/>
<path d="M46.625 65.7134L47.0667 62.4521L49.6921 64.4686L49.2504 67.7295L46.625 65.7134Z" fill="white"/>
<path d="M64.0845 25.0742L67.3774 25.5117L65.3414 28.1119L62.0488 27.6744L64.0845 25.0742Z" fill="white"/>
<path d="M8.80057 47.0322L12.0934 47.4697L10.0574 50.0699L6.76465 49.6324L8.80057 47.0322Z" fill="white"/>
<path d="M27.0385 65.4685L24.3977 67.4652L23.981 64.2009L26.6217 62.2041L27.0385 65.4685Z" fill="white"/>
<path d="M50.4528 11.2253L47.8122 13.2219L47.3955 9.95756L50.0362 7.96094L50.4528 11.2253Z" fill="white"/>
<path d="M9.04819 27.6346L7.03223 25.0192L10.3282 24.6064L12.3442 27.2218L9.04819 27.6346Z" fill="white"/>
<path d="M63.8174 50.8238L61.8015 48.2085L65.0975 47.7959L67.1134 50.4112L63.8174 50.8238Z" fill="white"/>
</g>
<defs>
<clipPath id="clip0_120_213">
<rect width="74" height="75" fill="white"/>
</clipPath>
</defs>
</svg>
