<svg width="74" height="75" viewBox="0 0 74 75" fill="none" xmlns="http://www.w3.org/2000/svg">
<g clip-path="url(#clip0_458_229)">
<path d="M37 74.8575C41.2936 74.8575 44.7743 71.4103 44.7743 67.1579C44.7743 62.9055 41.2936 59.4583 37 59.4583C32.7064 59.4583 29.2257 62.9055 29.2257 67.1579C29.2257 71.4103 32.7064 74.8575 37 74.8575Z" stroke="white"/>
<path fill-rule="evenodd" clip-rule="evenodd" d="M47.3862 41.3465C46.1999 41.8974 44.8757 42.2054 43.4786 42.2054C38.3899 42.2054 34.2646 38.1198 34.2646 33.0799C34.2646 30.5057 35.3409 28.1803 37.0723 26.5212C37.0481 26.5211 37.0242 26.521 37 26.521C30.8776 26.521 25.9144 31.4365 25.9144 37.5001C25.9144 43.5637 30.8776 48.4792 37 48.4792C41.7559 48.4792 45.8123 45.5128 47.3862 41.3465Z" fill="white"/>
<path d="M37 -8.39233e-05C32.6269 -8.39233e-05 29.0817 3.51099 29.0817 7.84212C29.0817 12.1733 32.6269 15.6843 37 15.6843C41.3732 15.6843 44.9183 12.1733 44.9183 7.84212C44.9183 3.51099 41.3732 -8.39233e-05 37 -8.39233e-05Z" fill="white"/>
<path fill-rule="evenodd" clip-rule="evenodd" d="M73.7633 31.2641C70.9248 31.9459 68.8171 34.4791 68.8171 37.4999C68.8171 40.5207 70.9248 43.0539 73.7633 43.7358C72.4313 44.7436 70.7667 45.3421 68.9611 45.3421C64.5879 45.3421 61.0428 41.8311 61.0428 37.4999C61.0428 33.1687 64.5879 29.6577 68.9611 29.6577C70.7667 29.6577 72.4313 30.2563 73.7633 31.2641Z" fill="white"/>
<path fill-rule="evenodd" clip-rule="evenodd" d="M66.5404 17.832C66.1134 17.9198 65.6711 17.9659 65.2179 17.9659C61.64 17.9659 58.7393 15.0932 58.7393 11.5495C58.7393 10.2526 59.1277 9.04561 59.7957 8.03636C59.4963 8.00234 59.1919 7.98486 58.8833 7.98486C54.5101 7.98486 50.965 11.4959 50.965 15.8271C50.965 20.1582 54.5101 23.6693 58.8833 23.6693C62.5568 23.6693 65.6458 21.1919 66.5404 17.832Z" fill="white"/>
<path fill-rule="evenodd" clip-rule="evenodd" d="M8.49416 17.9659C12.0722 17.9659 14.9728 15.0932 14.9728 11.5495C14.9728 10.2674 14.5931 9.07316 13.939 8.07101C14.3233 8.01426 14.7165 7.98486 15.1167 7.98486C19.4899 7.98486 23.035 11.4959 23.035 15.8271C23.035 20.1582 19.4899 23.6693 15.1167 23.6693C11.4633 23.6693 8.38773 21.2188 7.4744 17.8868C7.80659 17.9388 8.14719 17.9659 8.49416 17.9659Z" fill="white"/>
<path fill-rule="evenodd" clip-rule="evenodd" d="M15.1167 67.0152C19.4899 67.0152 23.035 63.5042 23.035 59.173C23.035 54.8418 19.4899 51.3308 15.1167 51.3308C11.9805 51.3308 9.27018 53.1365 7.98785 55.7555C9.12538 54.7757 10.6114 54.1825 12.2374 54.1825C15.8154 54.1825 18.716 57.0553 18.716 60.5989C18.716 63.6781 16.5257 66.251 13.6038 66.8723C14.0935 66.9662 14.5993 67.0152 15.1167 67.0152Z" fill="white"/>
<path fill-rule="evenodd" clip-rule="evenodd" d="M65.8122 55.3743C64.7517 54.624 63.4531 54.1825 62.0506 54.1825C58.4727 54.1825 55.572 57.0553 55.572 60.5989C55.572 63.6302 57.6944 66.1705 60.5475 66.8416C60.0111 66.9553 59.4542 67.0152 58.8833 67.0152C54.5101 67.0152 50.965 63.5042 50.965 59.173C50.965 54.8418 54.5101 51.3308 58.8833 51.3308C61.8649 51.3308 64.4615 52.9628 65.8122 55.3743Z" fill="white"/>
<path fill-rule="evenodd" clip-rule="evenodd" d="M4.751 45.3421C9.12414 45.3421 12.6693 41.8311 12.6693 37.4999C12.6693 33.1687 9.12414 29.6577 4.751 29.6577C2.97491 29.6577 1.33539 30.2369 0.0144807 31.2147C2.9644 31.8147 5.18291 34.4007 5.18291 37.4999C5.18291 40.5992 2.9644 43.1851 0.0144806 43.7851C1.33539 44.7629 2.97491 45.3421 4.751 45.3421Z" fill="white"/>
<path d="M24.4538 10.9609L24.8955 7.69971L27.5209 9.7161L27.0791 12.9772L24.4538 10.9609Z" fill="white"/>
<path d="M46.6249 65.7136L47.0666 62.4524L49.692 64.4688L49.2503 67.7298L46.6249 65.7136Z" fill="white"/>
<path d="M64.0846 25.0742L67.3774 25.5117L65.3414 28.1119L62.0489 27.6744L64.0846 25.0742Z" fill="white"/>
<path d="M8.80059 47.0325L12.0934 47.4699L10.0574 50.0701L6.76466 49.6327L8.80059 47.0325Z" fill="white"/>
<path d="M27.0385 65.4682L24.3977 67.465L23.981 64.2006L26.6217 62.2039L27.0385 65.4682Z" fill="white"/>
<path d="M50.4527 11.2253L47.8121 13.2219L47.3954 9.95756L50.0361 7.96094L50.4527 11.2253Z" fill="white"/>
<path d="M9.0483 27.6341L7.03233 25.0187L10.3284 24.606L12.3444 27.2213L9.0483 27.6341Z" fill="white"/>
<path d="M63.8174 50.8234L61.8015 48.2081L65.0975 47.7954L67.1134 50.4107L63.8174 50.8234Z" fill="white"/>
</g>
<defs>
<clipPath id="clip0_458_229">
<rect width="74" height="75" fill="white"/>
</clipPath>
</defs>
</svg>
