<svg width="52" height="52" viewBox="0 0 52 52" fill="none" xmlns="http://www.w3.org/2000/svg">
<g clip-path="url(#clip0_284_518)">
<path d="M46.9947 0H5.00535C2.24097 0 0 2.24097 0 5.00535V46.9947C0 49.759 2.24097 52 5.00535 52H46.9947C49.759 52 52 49.759 52 46.9947V5.00535C52 2.24097 49.759 0 46.9947 0Z" fill="url(#paint0_radial_284_518)"/>
<path d="M19.6157 26.1109C19.6158 24.8373 19.9936 23.5924 20.7012 22.5335C21.4089 21.4746 22.4147 20.6493 23.5914 20.162C24.7681 19.6748 26.0629 19.5474 27.312 19.796C28.5611 20.0446 29.7084 20.658 30.6089 21.5587C31.5093 22.4594 32.1225 23.6068 32.3708 24.856C32.6191 26.1052 32.4914 27.3999 32.0039 28.5765C31.5163 29.7531 30.6908 30.7587 29.6317 31.4661C28.5727 32.1735 27.3276 32.551 26.054 32.5508C24.3463 32.5505 22.7086 31.8719 21.5012 30.6642C20.2938 29.4565 19.6156 27.8187 19.6157 26.1109ZM16.1343 26.1109C16.1343 28.0729 16.716 29.9908 17.806 31.6221C18.896 33.2534 20.4453 34.5248 22.2579 35.2756C24.0705 36.0264 26.065 36.2228 27.9893 35.8401C29.9135 35.4573 31.681 34.5126 33.0684 33.1253C34.4557 31.738 35.4004 29.9704 35.7832 28.0462C36.1659 26.1219 35.9695 24.1274 35.2187 22.3148C34.4679 20.5022 33.1964 18.9529 31.5651 17.8629C29.9339 16.7729 28.016 16.1912 26.054 16.1912C24.7513 16.1911 23.4614 16.4476 22.2578 16.9461C21.0543 17.4446 19.9607 18.1753 19.0395 19.0964C18.1184 20.0176 17.3877 21.1112 16.8892 22.3147C16.3907 23.5183 16.1342 24.8082 16.1343 26.1109ZM34.0483 15.7981C34.0481 16.2566 34.1838 16.7048 34.4384 17.0861C34.6929 17.4674 35.0548 17.7647 35.4783 17.9404C35.9018 18.116 36.3679 18.1621 36.8176 18.0729C37.2673 17.9836 37.6804 17.763 38.0047 17.439C38.3291 17.1149 38.55 16.702 38.6397 16.2524C38.7293 15.8027 38.6836 15.3366 38.5083 14.913C38.3331 14.4893 38.0361 14.1272 37.655 13.8723C37.2739 13.6174 36.8258 13.4812 36.3674 13.481C35.7528 13.4813 35.1635 13.7255 34.7289 14.1599C34.2942 14.5944 34.0498 15.1836 34.0493 15.7981M18.2505 41.8358C17.0255 41.8224 15.8119 41.5982 14.663 41.1731C13.8297 40.8519 13.073 40.3598 12.4414 39.7285C11.8098 39.0972 11.3175 38.3407 10.9959 37.5076C10.5707 36.3587 10.3465 35.1451 10.3332 33.9201C10.2394 31.8839 10.221 31.2722 10.221 26.1135C10.221 20.9548 10.2414 20.3445 10.3332 18.3063C10.3481 17.0815 10.5722 15.8682 10.9959 14.7188C11.3171 13.8854 11.8093 13.1284 12.4409 12.4968C13.0725 11.8652 13.8295 11.373 14.663 11.0518C15.8119 10.6265 17.0254 10.4024 18.2505 10.3891C20.2866 10.2953 20.8984 10.2769 26.055 10.2769C31.2117 10.2769 31.824 10.2968 33.8622 10.3896C35.087 10.4045 36.3003 10.6286 37.4497 11.0523C38.2831 11.3735 39.0401 11.8658 39.6717 12.4973C40.3033 13.1289 40.7955 13.8859 41.1167 14.7194C41.542 15.8683 41.7661 17.0818 41.7794 18.3068C41.8732 20.3461 41.8916 20.9548 41.8916 26.114C41.8916 31.2732 41.8727 31.8829 41.7794 33.9211C41.7652 35.146 41.541 36.3594 41.1167 37.5086C40.7952 38.3417 40.3028 39.0983 39.6712 39.7296C39.0397 40.3609 38.2829 40.8529 37.4497 41.1741C36.3008 41.5994 35.0872 41.8236 33.8622 41.8369C31.826 41.9307 31.2143 41.949 26.055 41.949C20.8958 41.949 20.2861 41.9301 18.2505 41.8369M18.0904 6.91069C16.4875 6.94221 14.9015 7.2456 13.4002 7.80795C12.1168 8.30417 10.9512 9.06311 9.97818 10.0361C9.00519 11.0091 8.24625 12.1747 7.75002 13.4581C7.18775 14.9595 6.88436 16.5454 6.85277 18.1483C6.75743 20.2079 6.73602 20.8666 6.73602 26.113C6.73602 31.3594 6.75794 32.0175 6.85277 34.0776C6.88435 35.6805 7.18774 37.2665 7.75002 38.7678C8.24628 40.0512 9.00523 41.2168 9.97822 42.1898C10.9512 43.1628 12.1168 43.9217 13.4002 44.418C14.9016 44.9801 16.4875 45.2835 18.0904 45.3152C20.151 45.409 20.8087 45.432 26.055 45.432C31.3014 45.432 31.9596 45.4101 34.0197 45.3152C35.6226 45.2836 37.2085 44.9802 38.7099 44.418C39.9933 43.9217 41.1589 43.1628 42.1319 42.1898C43.1049 41.2168 43.8638 40.0512 44.3601 38.7678C44.9231 37.2667 45.2265 35.6806 45.2573 34.0776C45.3511 32.0165 45.3725 31.3594 45.3725 26.113C45.3725 20.8666 45.3506 20.2084 45.2573 18.1483C45.2258 16.5454 44.9224 14.9595 44.3601 13.4581C43.8638 12.1749 43.1051 11.0095 42.1324 10.0366C41.1597 9.0636 39.9945 8.30452 38.7114 7.80795C37.2102 7.24524 35.6242 6.94183 34.0212 6.91069C31.9611 6.81638 31.303 6.79395 26.0576 6.79395C20.8122 6.79395 20.1525 6.81587 18.0914 6.91069" fill="white"/>
</g>
<defs>
<radialGradient id="paint0_radial_284_518" cx="0" cy="0" r="1" gradientUnits="userSpaceOnUse" gradientTransform="translate(36.0183 49.1905) scale(58.0982)">
<stop offset="0.64" stop-color="#8C3AAA" stop-opacity="0"/>
<stop offset="1" stop-color="#8C3AAA"/>
</radialGradient>
<clipPath id="clip0_284_518">
<rect width="52" height="52" fill="white"/>
</clipPath>
</defs>
</svg>
