<svg width="52" height="52" viewBox="0 0 52 52" fill="none" xmlns="http://www.w3.org/2000/svg">
<g clip-path="url(#clip0_286_525)">
<path d="M47.0226 0H4.97741C2.22846 0 0 2.22846 0 4.97741V47.0226C0 49.7715 2.22846 52 4.97741 52H47.0226C49.7715 52 52 49.7715 52 47.0226V4.97741C52 2.22846 49.7715 0 47.0226 0Z" fill="url(#paint0_radial_286_525)"/>
<path d="M39.1828 23.6507V28.5591C38.3236 28.4752 37.2107 28.2814 35.9768 27.8288C34.3653 27.2383 33.1664 26.4311 32.3821 25.8057V35.7285L32.3631 35.6975C32.3771 35.8934 32.3821 36.0942 32.3821 36.296C32.3821 41.2244 28.3728 45.2357 23.4424 45.2357C18.5119 45.2357 14.5026 41.2244 14.5026 36.296C14.5026 31.3675 18.5119 27.3542 23.4424 27.3542C23.9239 27.3542 24.3985 27.3932 24.8611 27.4671V32.3057C24.4165 32.1458 23.9399 32.0609 23.4424 32.0609C21.1085 32.0609 19.2083 33.9591 19.2083 36.295C19.2083 38.6308 21.1085 40.5291 23.4424 40.5291C25.7762 40.5291 27.6765 38.6288 27.6765 36.295C27.6765 36.2071 27.6745 36.1201 27.6685 36.0322V16.749H32.5749C32.5929 17.1646 32.6099 17.5823 32.6279 17.9989C32.6609 18.8171 32.9526 19.6024 33.4591 20.2458C34.0556 21.0021 34.9338 21.8803 36.1696 22.5816C37.3256 23.237 38.4126 23.5188 39.1818 23.6507H39.1828Z" fill="#FF004F"/>
<path d="M37.4974 19.6653V24.5737C36.6382 24.4898 35.5252 24.296 34.2913 23.8434C32.6798 23.253 31.4809 22.4457 30.6966 21.8203V31.7431L30.6777 31.7122C30.6916 31.908 30.6966 32.1088 30.6966 32.3106C30.6966 37.2391 26.6873 41.2504 21.7569 41.2504C16.8264 41.2504 12.8171 37.2391 12.8171 32.3106C12.8171 27.3822 16.8264 23.3689 21.7569 23.3689C22.2384 23.3689 22.713 23.4078 23.1756 23.4818V28.3203C22.731 28.1604 22.2544 28.0755 21.7569 28.0755C19.423 28.0755 17.5228 29.9738 17.5228 32.3096C17.5228 34.6455 19.423 36.5437 21.7569 36.5437C24.0907 36.5437 25.991 34.6435 25.991 32.3096C25.991 32.2217 25.989 32.1348 25.983 32.0469V12.7646H30.8895C30.9074 13.1803 30.9244 13.5979 30.9424 14.0145C30.9754 14.8327 31.2671 15.618 31.7746 16.2614C32.3711 17.0177 33.2493 17.8959 34.4851 18.5973C35.6411 19.2527 36.7281 19.5344 37.4974 19.6663V19.6653Z" fill="#00F7EF"/>
<path d="M38.5704 21.8118V26.7202C37.7112 26.6363 36.5982 26.4425 35.3644 25.9899C33.7529 25.3995 32.554 24.5922 31.7697 23.9668V33.8896L31.7507 33.8586C31.7647 34.0545 31.7697 34.2553 31.7697 34.4571C31.7697 39.3855 27.7604 43.3968 22.8299 43.3968C17.8995 43.3968 13.8902 39.3855 13.8902 34.4571C13.8902 29.5286 17.8995 25.5153 22.8299 25.5153C23.3115 25.5153 23.7861 25.5543 24.2486 25.6282V30.4668C23.804 30.3069 23.3275 30.222 22.8299 30.222C20.4961 30.222 18.5959 32.1202 18.5959 34.4561C18.5959 36.7919 20.4961 38.6902 22.8299 38.6902C25.1638 38.6902 27.064 36.7899 27.064 34.4561C27.064 34.3682 27.062 34.2813 27.056 34.1933V14.9111H31.9625C31.9805 15.3267 31.9975 15.7444 32.0155 16.161C32.0484 16.9792 32.3402 17.7645 32.8467 18.4079C33.4431 19.1642 34.3213 20.0424 35.5572 20.7437C36.7131 21.3991 37.8001 21.6809 38.5694 21.8128L38.5704 21.8118Z" fill="white"/>
</g>
<defs>
<radialGradient id="paint0_radial_286_525" cx="0" cy="0" r="1" gradientUnits="userSpaceOnUse" gradientTransform="translate(36.0183 49.1905) scale(58.0982)">
<stop offset="0.64" stop-color="#8C3AAA" stop-opacity="0"/>
<stop offset="1" stop-color="#8C3AAA"/>
</radialGradient>
<clipPath id="clip0_286_525">
<rect width="52" height="52" fill="white"/>
</clipPath>
</defs>
</svg>
