<svg width="52" height="52" viewBox="0 0 52 52" fill="none" xmlns="http://www.w3.org/2000/svg">
<g clip-path="url(#clip0_294_565)">
<path d="M51.998 38.8058C51.998 39.0904 51.9893 39.7079 51.9722 40.1849C51.9304 41.352 51.8379 42.858 51.698 43.5442C51.4877 44.5753 51.1702 45.5486 50.7564 46.3587C50.2667 47.317 49.6421 48.1754 48.8999 48.9163C48.1593 49.6556 47.3017 50.2778 46.3448 50.7655C45.5305 51.1805 44.5511 51.4981 43.514 51.7074C42.8347 51.8446 41.34 51.9354 40.1804 51.9766C39.7029 51.9936 39.0853 52.0022 38.8016 52.0022L13.1964 51.9981C12.9117 51.9981 12.2943 51.9894 11.8173 51.9723C10.6502 51.9304 9.14423 51.8379 8.45802 51.6981C7.42686 51.4877 6.45354 51.1703 5.64347 50.7565C4.68513 50.2667 3.82677 49.6421 3.08593 48.8999C2.34655 48.1593 1.72438 47.3018 1.23673 46.3449C0.821641 45.5305 0.504055 44.5512 0.294684 43.5141C0.157574 42.8348 0.0668281 41.3401 0.025543 40.1804C0.00858203 39.703 0 39.0854 0 38.8018L0.0040625 13.1965C0.0040625 12.9117 0.0127461 12.2943 0.0298594 11.8173C0.0717539 10.6502 0.164227 9.14423 0.304129 8.45807C0.514414 7.42691 0.831797 6.45359 1.24571 5.64347C1.7354 4.68518 2.36006 3.82677 3.10223 3.08593C3.84282 2.3466 4.70041 1.72438 5.65729 1.23668C6.47166 0.821691 7.45108 0.504105 8.48809 0.294734C9.16739 0.157574 10.6621 0.0668281 11.8218 0.0255938C12.2992 0.00858203 12.9169 0 13.2004 0L38.8057 0.00411328C39.0905 0.00411328 39.7079 0.0127969 40.1849 0.0299102C41.352 0.0718047 42.8579 0.164277 43.5442 0.30418C44.5753 0.514465 45.5486 0.831848 46.3587 1.24577C47.317 1.73545 48.1754 2.36011 48.9162 3.10228C49.6555 3.84287 50.2778 4.70041 50.7654 5.65734C51.1805 6.47171 51.4981 7.45108 51.7075 8.48809C51.8446 9.16744 51.9353 10.6621 51.9766 11.8218C51.9936 12.2993 52.0022 12.9169 52.0022 13.2005L51.998 38.8058Z" fill="url(#paint0_radial_294_565)"/>
<path d="M15.2008 37.7434C14.3265 40.456 16.4258 43.2308 19.199 42.9848C21.1667 42.8088 22.6551 41.1458 22.7317 39.1651C22.9644 34.5856 16.6035 33.3508 15.2008 37.7434ZM19.9968 38.9564C19.9968 39.6712 19.5098 40.2535 18.9126 40.2535C18.1286 40.2535 17.6432 39.299 17.8928 38.5236C18.2894 37.1875 19.9432 37.4881 19.9968 38.9035V38.9564ZM35.7399 37.5659C35.1427 35.9465 33.5547 34.8565 31.7968 35.0153C29.6071 35.21 28.0728 37.2374 28.2764 39.3426C28.4602 41.5397 30.3329 43.1716 32.4583 42.9816C35.0186 42.7559 36.6648 40.0527 35.7399 37.5659ZM32.1735 40.2535C30.728 40.2535 30.7341 37.664 32.1735 37.664C33.6037 37.664 33.6053 40.2535 32.1735 40.2535Z" fill="white"/>
<path d="M17.9233 13.6633C9.30037 20.5065 15.1854 29.4311 9.88962 29.4311C8.32877 29.4311 7.45014 31.2207 8.38125 32.4627C10.0426 34.6757 12.1387 36.1456 14.3817 37.1226C16.2754 31.6263 24.4515 33.2176 24.1711 38.9862C24.7034 38.9995 26.5596 39.001 27.0934 38.9995C26.963 36.0952 29.248 33.7224 32.1298 33.7224C34.1465 33.7224 35.9862 34.9614 36.7644 36.8191C39.6537 35.1005 42.1741 32.3324 43.2491 29.0566C47.8702 15.0118 30.1431 3.98082 17.9233 13.6633ZM31.9769 19.2453C32.9799 19.2453 33.7896 20.0595 33.7896 21.0661C33.7896 22.0682 32.9784 22.8824 31.9769 22.8824C30.9783 22.8824 30.1641 22.0682 30.1641 21.0661C30.1641 20.058 30.9783 19.2453 31.9769 19.2453ZM23.3255 19.5296C24.3241 19.5296 25.1382 20.3437 25.1382 21.3459C25.1382 22.3524 24.3241 23.1666 23.3255 23.1666C22.3269 23.1666 21.5127 22.3524 21.5127 21.3459C21.5127 20.3437 22.3269 19.5296 23.3255 19.5296ZM34.2799 26.5342C33.7236 28.8789 31.2797 31.0061 27.8671 31.0964C24.9163 31.2933 21.6282 29.0714 21.2908 26.1094C21.1409 24.8659 23.0211 24.6498 23.1621 25.8918C23.3915 27.9094 25.7935 29.2594 27.8161 29.2046C30.389 29.138 32.0893 27.5896 32.4402 26.0975C32.5616 25.5898 33.0669 25.276 33.5767 25.3929C34.0835 25.5143 34.3969 26.022 34.2799 26.5342Z" fill="white"/>
</g>
<defs>
<radialGradient id="paint0_radial_294_565" cx="0" cy="0" r="1" gradientUnits="userSpaceOnUse" gradientTransform="translate(36.0198 49.1926) scale(58.1007 58.1007)">
<stop offset="0.64" stop-color="#8C3AAA" stop-opacity="0"/>
<stop offset="1" stop-color="#8C3AAA"/>
</radialGradient>
<clipPath id="clip0_294_565">
<rect width="52" height="52" fill="white"/>
</clipPath>
</defs>
</svg>
