<svg width="52" height="52" viewBox="0 0 52 52" fill="none" xmlns="http://www.w3.org/2000/svg">
<g clip-path="url(#clip0_289_545)">
<path d="M51.997 38.8556C51.997 39.1402 51.9883 39.7577 51.9712 40.2347C51.9293 41.4018 51.8368 42.9078 51.6969 43.594C51.4866 44.6251 51.1692 45.5984 50.7553 46.4085C50.2656 47.3668 49.641 48.2252 48.8988 48.9661C48.1582 49.7054 47.3006 50.3276 46.3438 50.8153C45.5294 51.2303 44.5501 51.5479 43.513 51.7573C42.8337 51.8944 41.339 51.9852 40.1793 52.0264C39.7019 52.0435 39.0843 52.052 38.8006 52.052L13.1954 52.0479C12.9107 52.0479 12.2933 52.0392 11.8163 52.0221C10.6492 51.9802 9.14319 51.8877 8.45699 51.7479C7.42582 51.5375 6.4525 51.2201 5.64244 50.8063C4.68409 50.3165 3.82574 49.6919 3.08489 48.9497C2.34551 48.2091 1.72334 47.3516 1.23569 46.3947C0.820603 45.5803 0.503017 44.601 0.293646 43.564C0.156537 42.8846 0.0657905 41.3899 0.0245054 40.2302C0.00754444 39.7528 -0.0010376 39.1352 -0.0010376 38.8516L0.0030249 13.2463C0.0030249 12.9615 0.0117085 12.3441 0.0288218 11.8671C0.0707163 10.7 0.163189 9.19404 0.303091 8.50788C0.513376 7.47672 0.830759 6.50339 1.24468 5.69328C1.73436 4.73498 2.35902 3.87658 3.10119 3.13573C3.84178 2.39641 4.69938 1.77418 5.65625 1.28648C6.47063 0.871496 7.45005 0.55391 8.48705 0.344539C9.16635 0.207379 10.6611 0.116633 11.8207 0.0753984C12.2982 0.0583867 12.9158 0.0498047 13.1994 0.0498047L38.8047 0.053918C39.0895 0.053918 39.7069 0.0626016 40.1838 0.0797148C41.3509 0.121609 42.8569 0.214082 43.5431 0.353984C44.5742 0.564269 45.5476 0.881652 46.3577 1.29557C47.316 1.78525 48.1743 2.40991 48.9152 3.15208C49.6545 3.89268 50.2767 4.75022 50.7644 5.70714C51.1795 6.52152 51.497 7.50089 51.7064 8.53789C51.8435 9.21724 51.9342 10.7119 51.9756 11.8716C51.9926 12.3491 52.0011 12.9667 52.0011 13.2503L51.997 38.8556Z" fill="url(#paint0_radial_289_545)"/>
<path d="M39.7771 12.3528C36.2565 8.82919 31.5744 6.88772 26.586 6.88574C16.3078 6.88574 7.94251 15.2478 7.9384 25.5261C7.93708 28.8116 8.79574 32.0187 10.4275 34.8456L7.78204 44.5057L17.6674 41.9134C20.3911 43.3985 23.4576 44.1811 26.5786 44.1824H26.5862C36.8635 44.1824 45.2295 35.8194 45.2336 25.5409C45.2356 20.56 43.2978 15.8763 39.7771 12.3528ZM26.5862 41.034H26.5799C23.7988 41.033 21.071 40.2861 18.6913 38.8744L18.1253 38.5386L12.2592 40.0769L13.825 34.3594L13.4564 33.7731C11.9049 31.3062 11.0855 28.4549 11.0867 25.5273C11.0901 16.9845 18.043 10.0342 26.5922 10.0342C30.732 10.0358 34.6235 11.6496 37.5498 14.5782C40.476 17.5068 42.0867 21.3997 42.0851 25.5398C42.0818 34.0834 35.1289 41.034 26.5862 41.034ZM35.0878 29.4298C34.6218 29.1966 32.3311 28.0697 31.904 27.9143C31.4769 27.7588 31.1663 27.6811 30.8556 28.1475C30.545 28.6138 29.6521 29.663 29.3802 29.9738C29.1084 30.2847 28.8367 30.3236 28.3707 30.0904C27.9048 29.8573 26.4035 29.3654 24.6238 27.7785C23.2387 26.5436 22.3036 25.0181 22.0318 24.5517C21.76 24.0854 22.0029 23.8334 22.2361 23.6011C22.4457 23.3924 22.702 23.0571 22.935 22.7851C23.1679 22.5132 23.2456 22.3188 23.4009 22.0079C23.5563 21.6971 23.4786 21.425 23.3621 21.1919C23.2456 20.9588 22.3138 18.6661 21.9255 17.7335C21.5473 16.8252 21.1631 16.9481 20.8771 16.9338C20.6056 16.9203 20.2947 16.9175 19.9841 16.9175C19.6735 16.9175 19.1687 17.034 18.7417 17.5003C18.3146 17.9667 17.1109 19.0936 17.1109 21.3862C17.1109 23.6788 18.7804 25.8937 19.0134 26.2046C19.2464 26.5154 22.2989 31.2203 26.9729 33.2379C28.0846 33.7177 28.9525 34.0044 29.6292 34.2191C30.7454 34.5735 31.7611 34.5235 32.564 34.4036C33.4592 34.2699 35.3206 33.2768 35.709 32.1888C36.0973 31.1007 36.0973 30.1681 35.9808 29.9738C35.8643 29.7796 35.5537 29.663 35.0878 29.4298Z" fill="white"/>
</g>
<defs>
<radialGradient id="paint0_radial_289_545" cx="0" cy="0" r="1" gradientUnits="userSpaceOnUse" gradientTransform="translate(36.0188 49.2424) scale(58.1007 58.1007)">
<stop offset="0.64" stop-color="#8C3AAA" stop-opacity="0"/>
<stop offset="1" stop-color="#8C3AAA"/>
</radialGradient>
<clipPath id="clip0_289_545">
<rect width="52" height="52" fill="white"/>
</clipPath>
</defs>
</svg>
